<?xml version="1.0" encoding="UTF-8" standalone="no"?>
<!-- Created with Inkscape (http://www.inkscape.org/) -->

<svg
   xmlns:dc="http://purl.org/dc/elements/1.1/"
   xmlns:cc="http://creativecommons.org/ns#"
   xmlns:rdf="http://www.w3.org/1999/02/22-rdf-syntax-ns#"
   xmlns:svg="http://www.w3.org/2000/svg"
   xmlns="http://www.w3.org/2000/svg"
   xmlns:sodipodi="http://sodipodi.sourceforge.net/DTD/sodipodi-0.dtd"
   xmlns:inkscape="http://www.inkscape.org/namespaces/inkscape"
   width="744.09448819"
   height="1052.3622047"
   id="svg13662"
   version="1.1"
   inkscape:version="0.48.4 r9939"
   sodipodi:docname="New document 75">
  <defs
     id="defs13664" />
  <sodipodi:namedview
     id="base"
     pagecolor="#ffffff"
     bordercolor="#666666"
     borderopacity="1.0"
     inkscape:pageopacity="0.0"
     inkscape:pageshadow="2"
     inkscape:zoom="0.35"
     inkscape:cx="375"
     inkscape:cy="520"
     inkscape:document-units="px"
     inkscape:current-layer="layer1"
     showgrid="false"
     inkscape:window-width="1920"
     inkscape:window-height="1027"
     inkscape:window-x="0"
     inkscape:window-y="31"
     inkscape:window-maximized="1" />
  <metadata
     id="metadata13667">
    <rdf:RDF>
      <cc:Work
         rdf:about="">
        <dc:format>image/svg+xml</dc:format>
        <dc:type
           rdf:resource="http://purl.org/dc/dcmitype/StillImage" />
        <dc:title></dc:title>
      </cc:Work>
    </rdf:RDF>
  </metadata>
  <g
     inkscape:label="Layer 1"
     inkscape:groupmode="layer"
     id="layer1">
    <g
       id="g10650"
       transform="matrix(0.99397114,0.10964201,-0.10964201,0.99397114,-19.50314,-393.89772)">
      <g
         transform="matrix(0.78799318,5.4346739e-4,-5.4346739e-4,0.78799318,113.68171,127.37255)"
         id="g7129">
        <polygon
           transform="matrix(3.1793103,0,0,3.1793103,-4305.9781,-3187.0348)"
           id="polygon5978-3-08-5"
           points="1465.805,1133.8 1465.805,1131.998 1438.639,1131.998 1438.639,1133.8 1438.639,1137.251 1438.639,1167.87 1443.892,1167.87 1443.892,1137.251 1460.553,1137.251 1460.553,1167.87 1465.805,1167.87 1465.805,1137.251 "
           style="fill:#ffffff;fill-opacity:1" />
        <path
           inkscape:connector-curvature="0"
           id="polygon5980-4-0-6"
           d="m 364.30178,411.93409 0,97.33555 0,10.98896 0,5.72759 86.36323,0 0,-5.72759 0,-10.98896 0,-97.33555 -16.69991,0 0,97.33555 -18.13177,0 0,-82.11163 -16.69991,0 0,82.11163 -18.13177,0 0,-97.33555 z"
           style="fill:#ffffff;fill-opacity:1"
           sodipodi:nodetypes="ccccccccccccccccc" />
        <path
           inkscape:connector-curvature="0"
           id="polygon5984-7-2-7"
           d="m 460.69644,411.00171 0,114.98448 5.72759,0 10.97228,0 62.37073,0 0,-16.69988 -62.37073,0 0,-34.03248 62.37073,0 0,-16.69995 -62.37073,0 0,-30.8523 62.37073,0 0,-16.69987 -62.37073,0 -10.97228,0 -5.72759,0 z"
           style="fill:#ffffff;fill-opacity:1" />
        <path
           inkscape:connector-curvature="0"
           id="polygon5988-1-4-3"
           d="m 549.7984,411.00171 0,114.98448 5.74426,0 10.97232,0 62.37069,0 0,-16.69988 -62.37069,0 0,-34.03248 62.37069,0 0,-16.69995 -62.37069,0 0,-30.8523 62.37069,0 0,-16.69987 -62.37069,0 -10.97232,0 -5.74426,0 z"
           style="fill:#ffffff;fill-opacity:1" />
        <path
           sodipodi:nodetypes="ccccccccccccccccccccccccc"
           inkscape:connector-curvature="0"
           id="line5992-6-9-5-8"
           d="m 638.91707,411.00171 0,114.98448 5.72758,0 10.97229,0 0,-16.69991 0,-34.03249 37.61221,0 8.0752,8.19178 0,22.99359 16.7,0 0,-31.30192 -8.1419,-8.25835 0.02,-0.0314 0.7326,-0.71595 7.3926,-7.55904 0,-31.20199 -16.6999,-9.2581 0,32.18503 -8.0752,8.24176 0.02,0.0196 -37.62889,0 0,-30.85234 0,-16.69987 -10.97229,0 z"
           style="fill:#ffffff;fill-opacity:1" />
      </g>
      <g
         id="g10614"
         transform="matrix(0.47779007,-6.7634531e-4,6.7634531e-4,0.47779007,141.31729,333.43149)">
        <path
           inkscape:connector-curvature="0"
           style="fill:#761cec;fill-opacity:1;stroke:none"
           id="path8681-3"
           d="m 360.88897,341.97267 a 92.94412,92.94412 0 0 1 -185.88824,0 92.94412,92.94412 0 1 1 185.88824,0 z" />
        <polygon
           style="fill:#ffffff;fill-opacity:1"
           id="polygon8683-5"
           transform="matrix(2.2766678,0,0,2.2766678,-3071.4956,-2274.1557)"
           points="1443.892,1167.87 1443.892,1137.251 1460.553,1137.251 1460.553,1167.87 1465.805,1167.87 1465.805,1137.251 1465.805,1133.8 1465.805,1131.998 1438.639,1131.998 1438.639,1133.8 1438.639,1137.251 1438.639,1167.87 " />
        <path
           inkscape:connector-curvature="0"
           style="fill:#ffffff;fill-opacity:1"
           id="path8685-3"
           d="m 269.07137,303.02808 0,69.70127 0,7.86886 0,4.10154 61.84372,0 0,-4.10154 0,-7.86886 0,-69.70127 -11.9586,0 0,69.70127 -12.98396,0 0,-69.70127 -11.9586,0 0,69.70127 -12.98395,0 0,-69.70127 -11.95861,0 z" />
      </g>
    </g>
  </g>
</svg>
